<svg width="718" height="86" viewBox="0 0 718 86" fill="none" xmlns="http://www.w3.org/2000/svg">
<path d="M60.427 32.3827L70.9142 18.0608L85.7457 2.31854H49.6727C51.0953 4.6316 51.5641 7.37135 51.0789 10.5378C50.5884 13.7042 48.6643 17.2917 45.2902 21.3003L33.1514 37.3457V2.31854H0V83.343H33.1514V47.0078L51.4714 83.343H88.6673L79.2266 66.5565L60.4215 32.3771L60.427 32.3827Z" fill="url(#paint0_linear_237_2217)"/>
<path d="M153.739 9.54966C154.714 11.3631 155.347 13.3674 155.646 15.5682C155.946 17.7689 156.099 21.1824 156.099 25.8141V42.522L126.43 2.31854H91.9272L94.4019 6.25412V83.343H121.149C118.451 80.1822 116.521 77.5772 115.36 75.528C114.199 73.4844 113.43 71.205 113.054 68.7011C112.678 66.1971 112.493 62.43 112.493 57.4165V33.6908L149.689 83.3486H174.19V2.32416H148.566C151.041 5.33338 152.763 7.74751 153.733 9.5609L153.739 9.54966Z" fill="url(#paint1_linear_237_2217)"/>
<path d="M251.787 5.21001C244.859 1.73481 236.819 0 227.684 0C218.548 0 210.508 1.73481 203.58 5.21001C196.647 8.68522 191.273 13.6594 187.452 20.1438C183.631 26.6283 181.723 34.1906 181.723 42.8309C181.723 51.4712 183.631 59.0336 187.452 65.518C191.273 72.0024 196.647 76.9766 203.58 80.4518C210.508 83.927 218.543 85.6618 227.684 85.6618C236.825 85.6618 244.859 83.927 251.787 80.4518C258.715 76.9766 264.095 72.0024 267.916 65.518C271.737 59.0336 273.644 51.4768 273.644 42.8309C273.644 34.185 271.737 26.6283 267.916 20.1438C264.095 13.6594 258.715 8.68522 251.787 5.21001ZM236.001 62.9691C234.05 67.2921 231.281 69.4536 227.684 69.4536C224.086 69.4536 221.317 67.2921 219.366 62.9691C217.414 58.6462 216.444 51.9372 216.444 42.8253C216.444 33.7134 217.42 27.0044 219.366 22.6871C221.312 18.3641 224.086 16.2027 227.684 16.2027C231.281 16.2027 234.05 18.3641 236.001 22.6871C237.947 27.01 238.923 33.7246 238.923 42.8253C238.923 51.926 237.947 58.6462 236.001 62.9691Z" fill="url(#paint2_linear_237_2217)"/>
<path d="M375.409 10.9983C375.894 13.9345 375.987 16.9774 375.693 20.1438C375.317 23.0014 374.886 25.4324 374.401 27.4367C373.91 29.4466 373.18 32.0684 372.21 35.3078C371.359 38.1767 370.188 41.5845 368.705 45.5145L351.868 1.27441H338.829L322.112 45.6268C320.041 40.7199 318.422 36.3914 317.25 32.6467C315.527 27.8634 314.437 23.6191 313.99 19.9137C313.614 17.0616 313.636 14.1254 314.045 11.1162C314.454 8.10694 315.26 5.17629 316.46 2.31865H272.183L303.312 84.3874H321.18L337.712 42.1684L354.446 84.3874H372.204L402.996 2.31865H372.651C373.998 5.17629 374.919 8.06766 375.404 10.9983H375.409Z" fill="url(#paint3_linear_237_2217)"/>
<path d="M455.257 34.8418H440.644V2.31854H407.492V83.343H440.644V51.1623H455.257V83.343H488.409V2.31854H455.257V34.8418Z" fill="url(#paint4_linear_237_2217)"/>
<path d="M525.381 2.31854L492.9 83.343H522.122C520.999 79.8678 520.17 77.0551 519.647 74.8936C519.124 72.7321 519.124 69.9587 519.647 66.5621C519.696 66.2084 519.751 65.866 519.81 65.5179H542.982C543.031 65.8267 543.085 66.1242 543.134 66.4442C543.658 69.9924 543.696 72.7939 543.249 74.8375C542.802 76.881 541.902 79.7162 540.551 83.343H585.165L552.014 2.31854H525.381ZM531.219 28.8626L539.428 52.8971C539.499 53.0936 539.564 53.2844 539.635 53.4753H523.266C523.506 52.8129 523.762 52.1223 524.035 51.3925L531.219 28.8626Z" fill="url(#paint5_linear_237_2217)"/>
<path d="M622.813 2.31873H589.662V83.3432H649.898V52.785C640.981 61.1951 631.954 65.9054 622.813 66.9048V2.31311V2.31873Z" fill="url(#paint6_linear_237_2217)"/>
<path d="M690.915 66.9048V2.31311H657.764V83.3376H718V52.7794C709.082 61.1895 700.056 65.8998 690.915 66.8991V66.9048Z" fill="url(#paint7_linear_237_2217)"/>
<defs>
<linearGradient id="paint0_linear_237_2217" x1="42.0491" y1="2.79148" x2="45.6641" y2="83.0299" gradientUnits="userSpaceOnUse">
<stop stop-color="#55F6C9"/>
<stop offset="1" stop-color="#8476D9"/>
</linearGradient>
<linearGradient id="paint1_linear_237_2217" x1="130.939" y1="2.79151" x2="134.835" y2="83.0091" gradientUnits="userSpaceOnUse">
<stop stop-color="#55F6C9"/>
<stop offset="1" stop-color="#8476D9"/>
</linearGradient>
<linearGradient id="paint2_linear_237_2217" x1="225.315" y1="0.500002" x2="229.212" y2="85.3239" gradientUnits="userSpaceOnUse">
<stop stop-color="#55F6C9"/>
<stop offset="1" stop-color="#8476D9"/>
</linearGradient>
<linearGradient id="paint3_linear_237_2217" x1="334.219" y1="1.75954" x2="336.8" y2="84.1523" gradientUnits="userSpaceOnUse">
<stop stop-color="#55F6C9"/>
<stop offset="1" stop-color="#8476D9"/>
</linearGradient>
<linearGradient id="paint4_linear_237_2217" x1="445.866" y1="2.79148" x2="449.825" y2="82.9972" gradientUnits="userSpaceOnUse">
<stop stop-color="#55F6C9"/>
<stop offset="1" stop-color="#8476D9"/>
</linearGradient>
<linearGradient id="paint5_linear_237_2217" x1="536.655" y1="2.79148" x2="540.13" y2="83.0423" gradientUnits="userSpaceOnUse">
<stop stop-color="#55F6C9"/>
<stop offset="1" stop-color="#8476D9"/>
</linearGradient>
<linearGradient id="paint6_linear_237_2217" x1="618.228" y1="2.78608" x2="623.537" y2="82.8408" gradientUnits="userSpaceOnUse">
<stop stop-color="#55F6C9"/>
<stop offset="1" stop-color="#8476D9"/>
</linearGradient>
<linearGradient id="paint7_linear_237_2217" x1="686.33" y1="2.78604" x2="691.638" y2="82.8352" gradientUnits="userSpaceOnUse">
<stop stop-color="#55F6C9"/>
<stop offset="1" stop-color="#8476D9"/>
</linearGradient>
</defs>
</svg>
