<svg width="38" height="38" viewBox="0 0 38 38" fill="none" xmlns="http://www.w3.org/2000/svg">
<path d="M19 27.75C16.0712 27.75 13.522 29.9638 12.2059 33.2296C11.5773 34.7894 12.4793 36.5 13.6778 36.5H24.3221C25.5207 36.5 26.4226 34.7894 25.794 33.2296C24.478 29.9638 21.9288 27.75 19 27.75Z" stroke="#55F6C9" stroke-width="3" stroke-linecap="round"/>
<path d="M30.375 6.75H32.4788C34.5804 6.75 35.6311 6.75 36.1794 7.41038C36.7275 8.07076 36.4996 9.06198 36.0438 11.0444L35.3599 14.0179C34.3316 18.4901 30.5691 21.8154 26 22.5" stroke="#55F6C9" stroke-width="3" stroke-linecap="round" stroke-linejoin="round"/>
<path d="M7.625 6.75H5.52113C3.41961 6.75 2.36886 6.75 1.82067 7.41038C1.27248 8.07076 1.50042 9.06198 1.95631 11.0444L2.64009 14.0179C3.66849 18.4901 7.43096 21.8154 12 22.5" stroke="#55F6C9" stroke-width="3" stroke-linecap="round" stroke-linejoin="round"/>
<path d="M19 27.75C24.2864 27.75 28.7387 19.5913 30.0769 8.48406C30.4471 5.41226 30.6322 3.87638 29.6519 2.68818C28.6717 1.5 27.089 1.5 23.9234 1.5H14.0765C10.9111 1.5 9.32833 1.5 8.34805 2.68818C7.36777 3.87638 7.55281 5.41226 7.92294 8.48406C9.26125 19.5913 13.7136 27.75 19 27.75Z" stroke="#55F6C9" stroke-width="3" stroke-linecap="round"/>
</svg>
