<svg width="20" height="20" viewBox="0 0 20 20" fill="none" xmlns="http://www.w3.org/2000/svg">
<circle cx="10" cy="10" r="10" fill="#55F6C9"/>
<circle cx="10" cy="10" r="9" stroke="black" stroke-opacity="0.2" stroke-width="2"/>
<mask id="path-3-outside-1_281_1151" maskUnits="userSpaceOnUse" x="4.5" y="5" width="11" height="11" fill="black">
<rect fill="white" x="4.5" y="5" width="11" height="11"/>
<path d="M8.75 14.75V7.25H6.25V6H13.75V7.25H11.25V14.75H8.75Z"/>
</mask>
<path d="M8.75 14.75V7.25H6.25V6H13.75V7.25H11.25V14.75H8.75Z" fill="white"/>
<path d="M8.75 14.75H7.75V15.75H8.75V14.75ZM8.75 7.25H9.75V6.25H8.75V7.25ZM6.25 7.25H5.25V8.25H6.25V7.25ZM6.25 6V5H5.25V6H6.25ZM13.75 6H14.75V5H13.75V6ZM13.75 7.25V8.25H14.75V7.25H13.75ZM11.25 7.25V6.25H10.25V7.25H11.25ZM11.25 14.75V15.75H12.25V14.75H11.25ZM8.75 14.75H9.75V7.25H8.75H7.75V14.75H8.75ZM8.75 7.25V6.25H6.25V7.25V8.25H8.75V7.25ZM6.25 7.25H7.25V6H6.25H5.25V7.25H6.25ZM6.25 6V7H13.75V6V5H6.25V6ZM13.75 6H12.75V7.25H13.75H14.75V6H13.75ZM13.75 7.25V6.25H11.25V7.25V8.25H13.75V7.25ZM11.25 7.25H10.25V14.75H11.25H12.25V7.25H11.25ZM11.25 14.75V13.75H8.75V14.75V15.75H11.25V14.75Z" fill="black" fill-opacity="0.2" mask="url(#path-3-outside-1_281_1151)"/>
</svg>
