<svg width="44" height="42" viewBox="0 0 44 42" fill="none" xmlns="http://www.w3.org/2000/svg">
<path d="M42 6.08614V30.6527C42 32.6067 40.44 34.4384 38.52 34.6827L37.86 34.7642C33.5 35.3544 26.7799 37.6136 22.9399 39.771C22.4199 40.0763 21.56 40.0763 21.02 39.771L20.9399 39.7304C17.0999 37.5933 10.4001 35.3544 6.06006 34.7642L5.47998 34.6827C3.55998 34.4384 2 32.6067 2 30.6527V6.06576C2 3.6437 3.93995 1.81192 6.31995 2.01545C10.5199 2.36146 16.8799 4.51898 20.4399 6.77821L20.9399 7.08343C21.5199 7.44979 22.4801 7.44979 23.0601 7.08343L23.4 6.85958C24.66 6.06579 26.26 5.272 28 4.55963V12.8639L32 10.1568L36 12.8639V2.23943C36.54 2.13767 37.06 2.07653 37.54 2.03582H37.66C40.04 1.83229 42 3.64372 42 6.08614Z" stroke="#8476D9" stroke-width="4" stroke-linecap="round" stroke-linejoin="round"/>
<path d="M22 7.75586V38.286" stroke="#8476D9" stroke-width="4" stroke-linecap="round" stroke-linejoin="round"/>
<path d="M36 2.24023V12.8647L32 10.1576L28 12.8647V4.56043C30.62 3.50205 33.54 2.6473 36 2.24023Z" stroke="#8476D9" stroke-width="4" stroke-linecap="round" stroke-linejoin="round"/>
</svg>
